<?xml version="1.0" encoding="utf-8"?>
<!-- Generator: Adobe Illustrator 26.0.3, SVG Export Plug-In . SVG Version: 6.00 Build 0)  -->
<svg version="1.1" id="Layer_1" xmlns="http://www.w3.org/2000/svg" xmlns:xlink="http://www.w3.org/1999/xlink" x="0px" y="0px"
	 viewBox="0 0 512 512" style="enable-background:new 0 0 512 512;" xml:space="preserve">
<style type="text/css">
	.st0{fill:#FFD369;}
	.st1{fill:#F9B233;}
	.st2{fill:none;}
	.st3{fill:#1D1D1B;}
	.st4{font-family:'Overpass-Black';}
	.st5{font-size:145px;}
</style>
<path class="st0" d="M468.67,256c0,117.45-95.22,212.67-212.67,212.67c-113.38,0-206.05-88.74-212.33-200.56
	c-0.23-4.01-0.34-8.05-0.34-12.11c0-117.45,95.22-212.67,212.67-212.67c36.76,0,71.34,9.33,101.51,25.75
	C423.73,105.11,468.67,175.31,468.67,256z"/>
<path class="st1" d="M362.42,112.96c0,108.87-88.26,197.12-197.13,197.12c-45.89,0-88.12-15.68-121.62-41.97
	c-0.23-4.01-0.34-8.05-0.34-12.11c0-117.45,95.22-212.67,212.67-212.67c36.76,0,71.34,9.33,101.51,25.75
	C360.73,83.19,362.42,97.88,362.42,112.96z"/>
<rect x="97.67" y="106.42" class="st2" width="316.67" height="299.17"/>
<text transform="matrix(1 0 0 1 149.6436 221.3438)"><tspan x="0" y="0" class="st3 st4 st5">AN</tspan><tspan x="54.37" y="174" class="st3 st4 st5">O</tspan></text>
<path class="st3" d="M256,476.17c-116.72,0-213.28-91.21-219.82-207.64c-0.23-4.07-0.35-8.29-0.35-12.53
	c0-58.81,22.9-114.1,64.49-155.68S197.19,35.83,256,35.83c36.7,0,73.05,9.22,105.09,26.66C432.08,101.11,476.17,175.26,476.17,256
	c0,58.81-22.9,114.1-64.49,155.68C370.1,453.27,314.81,476.17,256,476.17z M256,50.83C142.87,50.83,50.83,142.87,50.83,256
	c0,3.96,0.11,7.89,0.33,11.68c6.09,108.5,96.07,193.49,204.84,193.49c113.13,0,205.17-92.04,205.17-205.17
	c0-75.24-41.09-144.34-107.24-180.33C324.07,59.42,290.21,50.83,256,50.83z"/>
</svg>
